<svg width="26" height="26" viewBox="0 0 26 26" fill="none" xmlns="http://www.w3.org/2000/svg">
<g clip-path="url(#clip0_251_854)">
<path d="M19.181 16.4651C18.2246 15.5087 17.219 14.716 17.1767 14.6827C17.0098 14.5516 16.7712 14.5657 16.621 14.7159L15.4355 15.9015L12.253 12.719C12.0892 12.5553 11.8237 12.5553 11.6599 12.719C11.4962 12.8828 11.4962 13.1483 11.6599 13.3121L15.139 16.7911C15.3028 16.9548 15.5683 16.9548 15.732 16.7911L16.9468 15.5762C17.3119 15.878 17.9682 16.4383 18.588 17.0582C19.2098 17.6799 19.7714 18.3382 20.0726 18.7026C19.5093 19.2512 18.4521 20.1338 17.6658 20.2063C16.0493 20.3555 12.9925 18.5305 10.2309 15.769C7.46924 13.0074 5.64454 9.95005 5.7935 8.33391C5.86596 7.54759 6.74868 6.49037 7.29725 5.9271C7.66142 6.22802 8.31908 6.78918 8.94162 7.41178C9.56154 8.03164 10.1217 8.68785 10.4236 9.05302L9.20878 10.2678C9.13011 10.3464 9.08594 10.4531 9.08594 10.5643C9.08594 10.6756 9.13011 10.7822 9.20872 10.8609L10.4739 12.1261C10.6377 12.2898 10.9032 12.2898 11.067 12.1261C11.2307 11.9622 11.2307 11.6967 11.067 11.533L10.0983 10.5644L11.2839 9.37889C11.434 9.2287 11.4482 8.99012 11.3171 8.82322C11.2838 8.78089 10.4911 7.77528 9.5347 6.81881C8.57829 5.8624 7.57263 5.06971 7.5303 5.03644C7.36848 4.90941 7.13857 4.91818 6.98721 5.05752C6.7933 5.23589 5.08876 6.8414 4.95826 8.25709C4.78537 10.1332 6.66592 13.3904 9.63775 16.3622C12.4834 19.2078 15.5903 21.0528 17.4961 21.0527C17.5807 21.0527 17.6631 21.049 17.7428 21.0417C19.1585 20.9111 20.764 19.2067 20.9424 19.0128C21.0816 18.8614 21.0906 18.6314 20.9635 18.4697C20.9301 18.4271 20.1374 17.4216 19.181 16.4651Z" fill="#00C32B"/>
<path d="M22.1924 3.80763C19.737 1.35228 16.4724 0 13 0C9.52757 0 6.26304 1.35228 3.80763 3.80763C1.35228 6.26304 0 9.52757 0 13.0001C0 15.5589 0.740357 18.0271 2.14313 20.1518L0.555785 24.9137C0.505574 25.0644 0.54477 25.2306 0.657101 25.3429C0.769432 25.4552 0.935497 25.4944 1.0863 25.4442L5.84821 23.8569C7.97289 25.2596 10.441 26 13 26C16.4724 26 19.737 24.6477 22.1924 22.1924C24.6477 19.737 26 16.4725 26 13.0001C26 9.52757 24.6477 6.26304 22.1924 3.80763ZM13 25.1613C10.5405 25.1613 8.17099 24.4304 6.14757 23.0477C6.07701 22.9995 5.99443 22.9746 5.91095 22.9746C5.86644 22.9746 5.82165 22.9817 5.77837 22.9961L1.6167 24.3833L3.00398 20.2216C3.04541 20.0972 3.02634 19.9606 2.95237 19.8524C1.56956 17.829 0.83871 15.4594 0.83871 13.0001C0.83871 6.29424 6.29424 0.83871 13 0.83871C19.7058 0.83871 25.1613 6.29424 25.1613 13.0001C25.1613 19.7058 19.7058 25.1613 13 25.1613Z" fill="#00C32B"/>
</g>
<defs>
<clipPath id="clip0_251_854">
<rect width="26" height="26" fill="white"/>
</clipPath>
</defs>
</svg>
