<svg width="26" height="26" viewBox="0 0 26 26" fill="none" xmlns="http://www.w3.org/2000/svg">
<path d="M1.36621 19.2535C1.56839 19.2535 1.73242 19.0897 1.73242 18.8873V8.22122H23.3696V12.2467C23.3696 12.4491 23.5336 12.6129 23.7358 12.6129C23.9382 12.6129 24.102 12.4491 24.102 12.2467V5.00925C24.102 3.78149 23.1031 2.78261 21.8755 2.78261H20.9152V2.32904C20.9152 1.83847 20.5162 1.43945 20.0256 1.43945H19.3453C18.8549 1.43945 18.4559 1.83847 18.4559 2.32904V2.78261H16.027V2.32904C16.027 1.83847 15.628 1.43945 15.1375 1.43945H14.4571C13.9667 1.43945 13.5677 1.83847 13.5677 2.32904V2.78261H11.1387V2.32904C11.1387 1.83847 10.7397 1.43945 10.2491 1.43945H9.56895C9.07838 1.43945 8.67937 1.83847 8.67937 2.32904V2.78261H6.25055V2.32904C6.25055 1.83847 5.85153 1.43945 5.36096 1.43945H4.6808C4.19023 1.43945 3.79121 1.83847 3.79121 2.32904V2.78261H3.22664C1.99888 2.78261 1 3.78149 1 5.00925V18.8873C1 19.0897 1.16403 19.2535 1.36621 19.2535ZM19.1883 2.32904C19.1883 2.24245 19.2589 2.17188 19.3455 2.17188H20.0258C20.1124 2.17188 20.1828 2.24245 20.1828 2.32904V4.10822C20.1828 4.19481 20.1124 4.26538 20.0258 4.26538H19.3455C19.2589 4.26538 19.1883 4.195 19.1883 4.10822V2.32904ZM14.3001 2.32904C14.3001 2.24245 14.3705 2.17188 14.4571 2.17188H15.1375C15.2241 2.17188 15.2946 2.24245 15.2946 2.32904V4.10822C15.2946 4.19481 15.2241 4.26538 15.1375 4.26538H14.4571C14.3705 4.26538 14.3001 4.195 14.3001 4.10822V2.32904ZM9.41179 2.32904C9.41179 2.24245 9.48236 2.17188 9.56895 2.17188H10.2493C10.3359 2.17188 10.4065 2.24245 10.4065 2.32904V4.10822C10.4065 4.19481 10.3359 4.26538 10.2493 4.26538H9.56895C9.48236 4.26538 9.41179 4.195 9.41179 4.10822V2.32904ZM4.52364 2.32904C4.52364 2.24245 4.59421 2.17188 4.6808 2.17188H5.36115C5.44775 2.17188 5.51813 2.24245 5.51813 2.32904V4.10822C5.51813 4.19481 5.44775 4.26538 5.36115 4.26538H4.6808C4.59421 4.26538 4.52364 4.195 4.52364 4.10822V2.32904ZM3.22664 3.51503H3.79121V4.10822C3.79121 4.59879 4.19023 4.9978 4.6808 4.9978H5.36115C5.85153 4.9978 6.25055 4.59879 6.25055 4.10822V3.51503H8.67956V4.10822C8.67956 4.59879 9.07858 4.9978 9.56895 4.9978H10.2493C10.7399 4.9978 11.1389 4.59879 11.1389 4.10822V3.51503H13.5677V4.10822C13.5677 4.59879 13.9667 4.9978 14.4573 4.9978H15.1376C15.628 4.9978 16.027 4.59879 16.027 4.10822V3.51503H18.4559V4.10822C18.4559 4.59879 18.8549 4.9978 19.3455 4.9978H20.0258C20.5162 4.9978 20.9152 4.59879 20.9152 4.10822V3.51503H21.8755C22.6995 3.51503 23.3698 4.18527 23.3698 5.00925V7.4888H1.73242V5.00925C1.73242 4.18527 2.40266 3.51503 3.22664 3.51503Z" fill="#C3007D"/>
<path d="M5.146 22.6587H1.95272C1.83122 22.6587 1.73242 22.5599 1.73242 22.4384V20.5557C1.73242 20.3533 1.56839 20.1895 1.36621 20.1895C1.16403 20.1895 1 20.3533 1 20.5557V22.4384C1 22.9637 1.42744 23.3911 1.95272 23.3911H5.146C5.34818 23.3911 5.51221 23.2271 5.51221 23.0249C5.51221 22.8225 5.34818 22.6587 5.146 22.6587Z" fill="#C3007D"/>
<path d="M5.1338 9.28906H3.86084C3.65866 9.28906 3.49463 9.45309 3.49463 9.65527C3.49463 9.85764 3.65866 10.0215 3.86084 10.0215H5.1338C5.33598 10.0215 5.50002 9.85764 5.50002 9.65527C5.50002 9.45309 5.33598 9.28906 5.1338 9.28906Z" fill="#C3007D"/>
<path d="M7.77295 10.0215H9.04591C9.24809 10.0215 9.41212 9.85764 9.41212 9.65527C9.41212 9.45309 9.24809 9.28906 9.04591 9.28906H7.77295C7.57077 9.28906 7.40674 9.45309 7.40674 9.65527C7.40674 9.85764 7.57077 10.0215 7.77295 10.0215Z" fill="#C3007D"/>
<path d="M11.6846 10.0215H12.9573C13.1595 10.0215 13.3236 9.85764 13.3236 9.65527C13.3236 9.45309 13.1595 9.28906 12.9573 9.28906H11.6846C11.4822 9.28906 11.3184 9.45309 11.3184 9.65527C11.3184 9.85764 11.4822 10.0215 11.6846 10.0215Z" fill="#C3007D"/>
<path d="M15.5967 10.0215H16.8696C17.0718 10.0215 17.2359 9.85764 17.2359 9.65527C17.2359 9.45309 17.0718 9.28906 16.8696 9.28906H15.5967C15.3945 9.28906 15.2305 9.45309 15.2305 9.65527C15.2305 9.85764 15.3945 10.0215 15.5967 10.0215Z" fill="#C3007D"/>
<path d="M20.7816 9.28906H19.5088C19.3064 9.28906 19.1426 9.45309 19.1426 9.65527C19.1426 9.85764 19.3064 10.0215 19.5088 10.0215H20.7816C20.9837 10.0215 21.1478 9.85764 21.1478 9.65527C21.1478 9.45309 20.9837 9.28906 20.7816 9.28906Z" fill="#C3007D"/>
<path d="M5.1338 11.1309H3.86084C3.65866 11.1309 3.49463 11.2947 3.49463 11.4971C3.49463 11.6994 3.65866 11.8633 3.86084 11.8633H5.1338C5.33598 11.8633 5.50002 11.6994 5.50002 11.4971C5.50002 11.2947 5.33598 11.1309 5.1338 11.1309Z" fill="#C3007D"/>
<path d="M7.77295 11.8633H9.04591C9.24809 11.8633 9.41212 11.6994 9.41212 11.4971C9.41212 11.2947 9.24809 11.1309 9.04591 11.1309H7.77295C7.57077 11.1309 7.40674 11.2947 7.40674 11.4971C7.40674 11.6994 7.57077 11.8633 7.77295 11.8633Z" fill="#C3007D"/>
<path d="M11.6846 11.8633H12.9573C13.1595 11.8633 13.3236 11.6994 13.3236 11.4971C13.3236 11.2947 13.1595 11.1309 12.9573 11.1309H11.6846C11.4822 11.1309 11.3184 11.2947 11.3184 11.4971C11.3184 11.6994 11.4822 11.8633 11.6846 11.8633Z" fill="#C3007D"/>
<path d="M15.5967 11.8633H16.8696C17.0718 11.8633 17.2359 11.6994 17.2359 11.4971C17.2359 11.2947 17.0718 11.1309 16.8696 11.1309H15.5967C15.3945 11.1309 15.2305 11.2947 15.2305 11.4971C15.2305 11.6994 15.3945 11.8633 15.5967 11.8633Z" fill="#C3007D"/>
<path d="M20.7816 11.1309H19.5088C19.3064 11.1309 19.1426 11.2947 19.1426 11.4971C19.1426 11.6994 19.3064 11.8633 19.5088 11.8633H20.7816C20.9837 11.8633 21.1478 11.6994 21.1478 11.4971C21.1478 11.2947 20.9837 11.1309 20.7816 11.1309Z" fill="#C3007D"/>
<path d="M7.7816 19.0532L9.66454 20.9361C9.93691 21.2085 10.2989 21.3584 10.6842 21.3584C11.0695 21.3584 11.4317 21.2085 11.7039 20.9361L16.8604 15.7796C17.4227 15.2173 17.4227 14.3024 16.8604 13.7401C16.2981 13.1778 15.3831 13.1778 14.8209 13.7401L10.6842 17.8767L9.82094 17.0137C9.25884 16.4514 8.34389 16.4514 7.78141 17.0137C7.21932 17.5759 7.21932 18.4909 7.7816 19.0532ZM8.29945 17.5315C8.43773 17.3932 8.6195 17.324 8.80127 17.324C8.98304 17.324 9.16481 17.3932 9.30309 17.5315L10.4252 18.6536C10.5682 18.7966 10.8 18.7966 10.943 18.6536L15.3387 14.2581C15.6157 13.9814 16.0658 13.9814 16.3424 14.2579C16.6191 14.5347 16.6191 14.985 16.3424 15.2618L11.186 20.4181C11.0519 20.5522 10.8738 20.626 10.6842 20.626C10.4946 20.626 10.3165 20.5522 10.1824 20.4181L8.29945 18.5351C8.02269 18.2584 8.02269 17.8083 8.29945 17.5315Z" fill="#C3007D"/>
<path d="M24.1017 16.8373V13.915C24.1017 13.7127 23.9379 13.5488 23.7355 13.5488C23.5333 13.5488 23.3693 13.7127 23.3693 13.915V16.3702C22.7015 16.024 21.9437 15.8281 21.1411 15.8281C18.4621 15.8281 16.2825 18.0076 16.2825 20.6867C16.2825 21.3884 16.4323 22.0556 16.701 22.6587H6.81445C6.61227 22.6587 6.44824 22.8225 6.44824 23.0249C6.44824 23.2271 6.61227 23.3911 6.81445 23.3911H17.1067C17.9797 24.6895 19.4623 25.5453 21.1411 25.5453C23.8202 25.5453 25.9997 23.3658 25.9997 20.6867C25.9997 19.1211 25.2551 17.7263 24.1017 16.8373ZM21.1411 24.8129C18.8658 24.8129 17.015 22.962 17.015 20.6867C17.015 18.4114 18.866 16.5605 21.1411 16.5605C23.4162 16.5605 25.2673 18.4114 25.2673 20.6867C25.2673 22.962 23.4162 24.8129 21.1411 24.8129Z" fill="#C3007D"/>
<path d="M21.1415 17.0898C19.1581 17.0898 17.5444 18.7037 17.5444 20.6869C17.5444 22.6704 19.1581 24.284 21.1415 24.284C23.125 24.284 24.7384 22.6704 24.7384 20.6869C24.7384 18.7037 23.1248 17.0898 21.1415 17.0898ZM21.4694 23.5321C21.4936 23.4831 21.5077 23.4282 21.5077 23.3698V22.9237C21.5077 22.7215 21.3437 22.5574 21.1415 22.5574C20.9393 22.5574 20.7753 22.7215 20.7753 22.9237V23.3698C20.7753 23.4282 20.7892 23.4831 20.8136 23.5321C19.4957 23.3812 18.4472 22.3328 18.2963 21.0148C18.3451 21.0392 18.4003 21.0531 18.4586 21.0531H18.9046C19.1069 21.0531 19.2708 20.8893 19.2708 20.6869C19.2708 20.4845 19.1069 20.3207 18.9046 20.3207H18.4586C18.4003 20.3207 18.3451 20.3348 18.2963 20.359C18.4472 19.0411 19.4957 17.9926 20.8136 17.8417C20.7892 17.8907 20.7753 17.9457 20.7753 18.004V18.4502C20.7753 18.6525 20.9393 18.8164 21.1415 18.8164C21.3437 18.8164 21.5077 18.6525 21.5077 18.4502V18.004C21.5077 17.9457 21.4936 17.8907 21.4694 17.8417C22.7874 17.9926 23.8358 19.0411 23.9867 20.359C23.9377 20.3348 23.8827 20.3207 23.8244 20.3207H23.3783C23.1761 20.3207 23.012 20.4845 23.012 20.6869C23.012 20.8893 23.1761 21.0531 23.3783 21.0531H23.8244C23.8827 21.0531 23.9377 21.0392 23.9867 21.0148C23.8356 22.3328 22.7874 23.3812 21.4694 23.5321Z" fill="#C3007D"/>
<path d="M21.9488 20.3209H21.5078V19.9453C21.5078 19.7431 21.3438 19.5791 21.1416 19.5791C20.9392 19.5791 20.7754 19.7431 20.7754 19.9453V20.6871C20.7754 20.8895 20.9392 21.0533 21.1416 21.0533H21.9488C22.151 21.0533 22.315 20.8895 22.315 20.6871C22.315 20.4847 22.151 20.3209 21.9488 20.3209Z" fill="#C3007D"/>
</svg>
