<svg width="31" height="32" viewBox="0 0 31 32" fill="none" xmlns="http://www.w3.org/2000/svg">
<path d="M15.5 1C6.94012 1 0 7.94012 0 16.5C0 25.0599 6.94012 32 15.5 32C24.0599 32 31 25.0599 31 16.5C31 7.93821 24.0599 1 15.5 1ZM19.5067 16.498L16.9667 16.4999L16.9647 25.7999H13.4792V16.5H11.1542V13.2954L13.4792 13.2934L13.4753 11.4063C13.4753 8.79073 14.1844 7.20004 17.2631 7.20004H19.8283V10.4066H18.2241C17.0248 10.4066 16.9667 10.8541 16.9667 11.6892L16.9628 13.2934H19.8457L19.5067 16.498Z" fill="#212226"/>
</svg>
