<svg width="11" height="16" viewBox="0 0 11 16" fill="none" xmlns="http://www.w3.org/2000/svg">
<path d="M9.21505 2.46701C8.22285 1.50933 6.90357 0.981842 5.50047 0.981842C4.09709 0.981842 2.77809 1.50933 1.78589 2.46701C-0.0503019 4.23906 -0.278491 7.57322 1.29171 9.59328L5.50047 15.4599L9.70293 9.60147C11.2794 7.57322 11.0512 4.23906 9.21505 2.46701ZM9.2586 9.29238L5.50047 14.5308L1.73631 9.28419C0.312116 7.45132 0.516198 4.44027 2.17351 2.84088C3.06216 1.98315 4.24365 1.51065 5.50047 1.51065C6.75729 1.51065 7.93878 1.98315 8.8277 2.84088C10.485 4.44027 10.6891 7.45132 9.2586 9.29238Z" fill="#ACACAC"/>
</svg>
